<svg viewBox="0 0 64 64" fill="none" xmlns="http://www.w3.org/2000/svg">
  <defs>
    <linearGradient id="db-grad-top" x1="16" y1="12" x2="48" y2="24" gradientUnits="userSpaceOnUse">
      <stop stop-color="#38bdf8"/>
      <stop offset="0.5" stop-color="#0284c7"/>
      <stop offset="1" stop-color="#1e3a8a"/>
    </linearGradient>
    <linearGradient id="db-grad-mid" x1="16" y1="24" x2="48" y2="36" gradientUnits="userSpaceOnUse">
      <stop stop-color="#60a5fa"/>
      <stop offset="0.5" stop-color="#2563eb"/>
      <stop offset="1" stop-color="#1e293b"/>
    </linearGradient>
    <linearGradient id="db-grad-bot" x1="16" y1="36" x2="48" y2="48" gradientUnits="userSpaceOnUse">
      <stop stop-color="#818cf8"/>
      <stop offset="0.5" stop-color="#4f46e5"/>
      <stop offset="1" stop-color="#0f172a"/>
    </linearGradient>
    <linearGradient id="lens-ring-grad" x1="8" y1="8" x2="56" y2="56" gradientUnits="userSpaceOnUse">
      <stop stop-color="#38bdf8"/>
      <stop offset="0.3" stop-color="#818cf8"/>
      <stop offset="0.7" stop-color="#c084fc"/>
      <stop offset="1" stop-color="#38bdf8"/>
    </linearGradient>
    <radialGradient id="node-glow" cx="0.5" cy="0.5" r="0.5" fx="0.3" fy="0.3">
      <stop offset="0%" stop-color="#ffffff"/>
      <stop offset="60%" stop-color="#38bdf8"/>
      <stop offset="100%" stop-color="#0284c7"/>
    </radialGradient>
  </defs>

  <rect x="2" y="2" width="60" height="60" rx="16" fill="#090c14" stroke="#283144" stroke-width="1.5"/>

  <g opacity="0.6">
    <line x1="12" y1="18" x2="32" y2="18" stroke="#38bdf8" stroke-width="1.5" stroke-dasharray="3 3"/>
    <line x1="52" y1="18" x2="32" y2="18" stroke="#38bdf8" stroke-width="1.5" stroke-dasharray="3 3"/>
    <line x1="12" y1="46" x2="32" y2="46" stroke="#818cf8" stroke-width="1.5" stroke-dasharray="3 3"/>
    <line x1="52" y1="46" x2="32" y2="46" stroke="#818cf8" stroke-width="1.5" stroke-dasharray="3 3"/>
    <line x1="12" y1="18" x2="12" y2="46" stroke="#38bdf8" stroke-width="1.5"/>
    <line x1="52" y1="18" x2="52" y2="46" stroke="#818cf8" stroke-width="1.5"/>
  </g>

  <path d="M20 38 C20 35 44 35 44 38 L44 44 C44 47 20 47 20 44 Z" fill="url(#db-grad-bot)" stroke="#6366f1" stroke-width="1"/>
  <ellipse cx="32" cy="38" rx="12" ry="3.5" fill="#312e81" stroke="#818cf8" stroke-width="1"/>

  <path d="M20 28 C20 25 44 25 44 28 L44 34 C44 37 20 37 20 34 Z" fill="url(#db-grad-mid)" stroke="#3b82f6" stroke-width="1"/>
  <ellipse cx="32" cy="28" rx="12" ry="3.5" fill="#1e3a8a" stroke="#60a5fa" stroke-width="1"/>

  <path d="M20 18 C20 15 44 15 44 18 L44 24 C44 27 20 27 20 24 Z" fill="url(#db-grad-top)" stroke="#0284c7" stroke-width="1"/>
  <ellipse cx="32" cy="18" rx="12" ry="3.5" fill="#0369a1" stroke="#38bdf8" stroke-width="1.2"/>

  <circle cx="32" cy="31" r="19" stroke="url(#lens-ring-grad)" stroke-width="2" stroke-dasharray="14 4"/>

  <circle cx="12" cy="18" r="3.5" fill="url(#node-glow)" stroke="#ffffff" stroke-width="1"/>
  <circle cx="52" cy="18" r="3.5" fill="url(#node-glow)" stroke="#ffffff" stroke-width="1"/>
  <circle cx="12" cy="46" r="3.5" fill="url(#node-glow)" stroke="#ffffff" stroke-width="1"/>
  <circle cx="52" cy="46" r="3.5" fill="url(#node-glow)" stroke="#ffffff" stroke-width="1"/>

  <circle cx="32" cy="31" r="3" fill="#38bdf8"/>
  <circle cx="32" cy="31" r="1.5" fill="#ffffff"/>
</svg>
